<svg width="512" height="512" viewBox="0 0 512 512" fill="none" xmlns="http://www.w3.org/2000/svg">
<path d="M77.3231 456.767C79.3433 453.964 93.7801 458.229 93.7801 458.229C93.7801 458.229 131.888 462.621 155.268 445.429C205.006 408.858 202.969 406.74 217.063 383.258C250.672 327.262 278.128 240.811 322.352 250.11C370.992 260.336 351.086 278.674 373.76 302.446C391.314 320.85 395.494 412.6 377.574 420.885C343.563 436.611 316.866 438.439 316.866 438.439C258.352 443.925 177.498 450.652 161.84 453.475C131.68 458.914 136.577 459.022 120.112 460.058C101.149 461.251 72.5804 463.345 77.3231 456.767Z" fill="#FA6B1C" stroke="#FA6B1C" stroke-width="8.04572"/>
<path d="M87.5659 455.995C67.4524 455.995 135.837 420.885 106.579 235.104C97.7589 179.094 89.328 152.983 111.7 92.1079C120.686 67.6572 144.938 49.1201 174.446 41.3257C193.828 36.2057 226.743 37.468 250.148 44.2515C273.554 51.0349 302.446 69.12 312.111 89.915C315.075 96.2929 314.228 100.699 316.134 107.469C319.785 120.439 329.9 142.955 334.994 155.429C344.829 179.514 347.063 178.834 352.183 203.703C359.752 240.466 367.31 287.707 371.989 318.061C374.974 330.47 376.686 341.671 376.686 348.526C376.686 349.226 374.892 336.893 371.989 318.061C365.358 290.493 352.447 256.968 338.077 251.926C322.531 246.472 310.388 247.158 296.019 255.218C266.031 272.04 261.946 291.843 246.648 319.584C219.219 369.32 213.95 397.301 174.237 430.395C156.682 445.023 107.68 455.995 87.5659 455.995Z" fill="#FA6B1C" stroke="#FA6B1C" stroke-width="8.04572"/>
<path d="M268.228 292.89C288.162 259.605 307.366 247.906 330.04 251.562C340.646 253.272 355.276 269.114 355.276 269.114C369.173 288.497 376.488 323.606 376.488 351.034C376.488 385.912 377.864 376.25 375.014 411.011C373.186 433.319 366.246 432.388 342.831 435.148C302.602 439.889 308.067 441.154 279.563 439.171C237.506 436.245 230.556 355.793 268.228 292.89Z" fill="#FFD7C0" stroke="#FFD7C0" stroke-width="8.04572"/>
<path d="M228.212 87.222C228.221 87.2401 228.229 87.2567 228.236 87.2716C228.492 88.1081 228.769 88.9141 229.042 89.71C230.155 92.9506 231.21 96.025 230.598 100.317C230.136 103.559 229.723 104.346 229.554 104.597C229.489 104.693 229.386 104.821 229.018 105.129C228.858 105.263 228.691 105.396 228.468 105.574C228.408 105.622 228.343 105.673 228.273 105.729C227.966 105.975 227.602 106.269 227.2 106.616C226.097 107.566 225.132 107.869 224.326 107.888C223.492 107.907 222.432 107.63 221.176 106.742C218.645 104.954 217.618 104.111 216.984 103.098C216.431 102.214 215.93 100.752 215.929 97.2269C215.928 94.2031 216.568 90.8623 217.832 88.4343C219.061 86.0745 220.497 85.1591 222.179 85.1593C223.185 85.1595 225.786 85.6807 227.258 86.1016C227.318 86.1188 227.561 86.2358 227.891 86.6921C228.034 86.8894 228.142 87.0831 228.212 87.222Z" fill="#FA6B1C" stroke="#FA6B1C" stroke-width="8.04572"/>
<path d="M216.913 87.1142C217.3 86.3436 217.492 86.0125 217.755 85.6813C218.022 85.346 218.369 85.0002 219.079 84.2921C219.139 84.2323 219.202 84.1699 219.267 84.1047C219.676 83.6972 220.317 83.3131 221.005 83.1225C221.698 82.9308 222.299 82.9693 222.729 83.1993C223.118 83.408 223.327 83.8042 223.39 84.8295C223.41 85.1524 223.413 85.4609 223.416 85.8005C223.419 86.0088 223.421 86.2287 223.427 86.4709C223.442 87.0571 223.483 87.7157 223.641 88.3511C223.747 88.7745 223.879 89.1405 223.986 89.4401L223.987 89.444C224.101 89.7593 224.18 89.9833 224.232 90.2066C224.317 90.5758 224.34 90.9872 224.056 91.6989C223.599 92.8454 223.001 93.5992 222.052 94.0374C221.256 94.4047 220.043 94.2914 218.755 93.9692C218.156 93.8194 217.943 93.6168 217.772 93.3689C217.66 93.2073 217.553 93.0004 217.413 92.6964C217.375 92.6125 217.332 92.5181 217.286 92.4162C217.18 92.1791 217.055 91.9017 216.918 91.6221C216.512 90.7957 216.307 90.1333 216.286 89.4785C216.266 88.8324 216.422 88.092 216.913 87.1142Z" fill="#FA6B1C" stroke="#FA6B1C" stroke-width="2.19429"/>
<path d="M268.226 130.873C268.226 134.531 270.065 140.894 271.883 140.698C335.883 133.799 336.98 134.53 369.894 127.948C370.257 127.875 373.074 126.319 373.917 124.656C374.474 123.559 374.943 121.789 374.283 119.902C373.623 118.014 369.894 116.245 366.237 114.782C364.513 114.092 363.13 113.925 361.483 114.782C360.408 115.341 361.138 115.41 360.02 115.879C348.683 120.633 350.877 120.999 330.032 126.119C308.017 131.526 268.226 128.782 268.226 130.873Z" fill="#FA6B1C" stroke="#FA6B1C" stroke-width="0.731429"/>
<path d="M327.106 106.371C341.191 107.525 350.877 108.565 360.02 111.125C362.309 111.766 366.797 112.797 365.871 114.051C364.946 115.305 361.849 114.051 359.654 115.514C352.73 119.144 339.171 124.301 323.449 126.851C297.483 129.045 268.863 132.574 268.226 130.874C267.128 127.948 267.494 105.639 268.226 104.908C268.957 104.176 304.797 104.542 327.106 106.371Z" fill="#FA6B1C" stroke="#FA6B1C" stroke-width="0.731429"/>
<path d="M276.271 112.588C276.271 109.662 277.568 108.166 279.563 107.834C283.951 107.102 286.376 109.662 286.511 112.588C286.657 115.717 285.414 118.074 281.757 118.074C278.1 118.074 276.271 116.245 276.271 112.588Z" fill="#FA6B1C" stroke="#FA6B1C" stroke-width="0.731429"/>
<path d="M238.969 379.925C226.169 380.656 213.734 380.656 204.591 405.159C203.773 407.353 192.523 401.868 189.963 418.691C188.293 429.662 197.643 442.096 204.591 444.656C208.614 446.138 208.059 451.585 211.174 454.165C220.76 462.101 225.466 466.378 237.506 469.525C249.961 472.781 257.049 470.87 269.689 468.428C279.359 466.56 285.145 468.891 291.631 461.479C296.301 456.143 297.865 450.873 298.58 442.828C300.043 426.371 297.483 417.593 293.46 396.748C292.039 389.386 294.191 383.441 286.877 378.096C267.86 364.199 242.26 379.737 238.969 379.925Z" fill="#FA6B1C" stroke="#FA6B1C" stroke-width="2.19429"/>
<path d="M242.991 397.479C233.117 393.091 221.414 411.011 217.026 413.205C214.97 414.233 215 419.335 211.174 422.713C206.832 426.549 196.18 430.109 201.3 432.953C206.42 435.798 213.003 442.096 213.003 449.045C228.729 460.748 243.994 470.394 255.426 466.965C266.397 463.674 274.603 465.978 283.586 461.479C289.288 458.623 288.34 458.553 293.826 451.239C299.311 443.925 289.071 393.21 287.243 393.091C231.289 389.43 254.398 402.549 242.991 397.479Z" fill="#FA6B1C" stroke="#FA6B1C" stroke-width="2.19429"/>
<path d="M252.5 412.839C250.306 415.033 257.62 423.079 259.449 421.616C261.064 420.324 258.628 418.656 256.523 416.131C254.694 413.936 253.484 411.855 252.5 412.839Z" fill="#FA6B1C" stroke="#FA6B1C" stroke-width="2.19429"/>
<path d="M225.071 427.833C229.948 431.734 239.188 439.171 240.066 439.171C240.943 439.171 244.82 438.805 243.357 436.611C240.815 432.798 230.557 427.833 227.266 426.005C226.291 425.463 220.195 423.932 225.071 427.833Z" fill="#FA6B1C" stroke="#FA6B1C" stroke-width="2.19429"/>
<path d="M435.38 409.338C424.637 426.751 417.416 443.571 401.368 456.881C395.964 461.364 392.297 461.763 385.277 461.635C379.536 461.531 375.56 462.049 370.648 459.075C364.308 455.238 364.513 449.306 362.237 442.253C359.396 433.448 358.434 428.097 358.58 418.847C358.712 410.442 357.632 404.668 362.237 397.635L362.275 397.577C365.698 392.349 367.718 389.263 373.574 387.03C382.614 383.582 383.814 391.418 395.151 389.59C403.893 388.18 409.414 392.774 419.288 391.312C426.997 390.17 435.368 392.517 437.208 400.089C438.304 404.599 437.875 405.296 435.487 409.164L435.38 409.338Z" fill="#FA6B1C" stroke="#FA6B1C" stroke-width="2.19429"/>
<path d="M399.883 453.799C411.586 445.022 435.723 412.108 429.14 405.525C421.538 397.923 421.132 402.649 410.488 401.136C402.853 400.051 398.42 398.211 387.814 398.942C382.206 399.329 379.851 394.515 374.283 395.285C367.293 396.251 368.806 401.879 366.237 408.451C361.859 419.653 362.518 425.604 365.14 437.342C366.843 444.968 367.7 452.518 372.088 456.359C375.602 459.435 381.682 459.651 386.351 459.651C392.568 459.651 395.587 457.021 399.883 453.799Z" fill="#FA6B1C" stroke="#FA6B1C" stroke-width="2.19429"/>
<path d="M380.866 421.251C377.22 419.645 381.012 408.623 385.4 410.432C389.677 412.194 385.251 414.09 384.157 416.496C382.328 420.519 384.511 422.857 380.866 421.251Z" fill="#FA6B1C" stroke="#FA6B1C" stroke-width="2.19429"/>
<path d="M411.717 412.545C414.82 411.51 412.448 422.053 410.986 424.979C409.82 427.31 402.871 430.967 404.037 428.636C407.694 421.322 409.523 413.276 411.717 412.545Z" fill="#FA6B1C" stroke="#FA6B1C" stroke-width="2.19429"/>
</svg>
