<svg width="700" height="700" viewBox="0 0 700 700" fill="none" xmlns="http://www.w3.org/2000/svg">
<path d="M105.715 624.485C108.477 620.654 128.215 626.485 128.215 626.485C128.215 626.485 180.316 632.489 212.281 608.985C280.281 558.985 277.497 556.089 296.766 523.986C342.715 447.429 380.253 329.234 440.715 341.947C507.215 355.928 480 381 511 413.5C535 438.661 540.715 564.101 516.215 575.429C469.715 596.929 433.215 599.429 433.215 599.429C353.215 606.929 242.673 616.125 221.266 619.985C180.031 627.421 186.726 627.569 164.215 628.985C138.29 630.617 99.231 633.479 105.715 624.485Z" fill="#FA6B1C" stroke="#FA6B1C" stroke-width="11"/>
<path d="M119.719 623.43C92.2202 623.43 185.715 575.429 145.714 321.431C133.655 244.855 122.128 209.157 152.715 125.929C165 92.5 198.158 67.1564 238.5 56.5C265 49.5 310 51.2258 342 60.5C374 69.7743 413.5 94.5 426.714 122.931C430.767 131.65 429.608 137.675 432.214 146.931C437.206 164.662 451.036 195.446 458 212.5C471.446 245.429 474.5 244.5 481.5 278.5C491.848 328.763 502.182 393.349 508.579 434.849C512.659 451.814 515 467.129 515 476.5C515 477.457 512.547 460.596 508.579 434.849C499.513 397.158 481.861 351.324 462.214 344.431C440.96 336.974 424.358 337.911 404.714 348.931C363.714 371.93 358.13 399.004 337.214 436.931C299.714 504.93 292.51 543.185 238.214 588.431C214.214 608.43 147.218 623.43 119.719 623.43Z" fill="#FA6B1C" stroke="#FA6B1C" stroke-width="11"/>
<path d="M366.718 400.435C393.972 354.928 420.227 338.933 451.227 343.933C465.727 346.271 485.729 367.93 485.729 367.93C504.729 394.43 514.729 442.43 514.729 479.93C514.729 527.614 516.61 514.404 512.715 561.929C510.215 592.429 500.726 591.156 468.715 594.929C413.713 601.411 421.186 603.14 382.215 600.429C324.715 596.429 315.213 486.436 366.718 400.435Z" fill="#FFD7C0" stroke="#FFD7C0" stroke-width="11"/>
<path d="M312.008 119.249C312.02 119.273 312.031 119.296 312.041 119.317C312.392 120.46 312.77 121.562 313.143 122.65C314.665 127.081 316.108 131.284 315.271 137.152C314.639 141.585 314.075 142.661 313.843 143.003C313.754 143.135 313.613 143.31 313.111 143.731C312.892 143.915 312.664 144.096 312.359 144.339C312.276 144.405 312.188 144.475 312.092 144.552C311.672 144.887 311.174 145.289 310.624 145.763C309.117 147.063 307.797 147.477 306.695 147.502C305.555 147.529 304.107 147.15 302.39 145.937C298.929 143.492 297.524 142.34 296.658 140.954C295.902 139.745 295.216 137.747 295.215 132.927C295.214 128.793 296.089 124.226 297.818 120.906C299.498 117.68 301.46 116.428 303.761 116.429C305.136 116.429 308.691 117.142 310.705 117.717C310.787 117.74 311.119 117.9 311.57 118.524C311.765 118.794 311.913 119.059 312.008 119.249Z" fill="#FA6B1C" stroke="#FA6B1C" stroke-width="11"/>
<path d="M296.561 119.101C297.089 118.048 297.352 117.595 297.712 117.142C298.077 116.684 298.551 116.211 299.522 115.243C299.604 115.161 299.69 115.076 299.779 114.987C300.338 114.43 301.214 113.905 302.156 113.644C303.102 113.382 303.925 113.435 304.512 113.749C305.044 114.034 305.33 114.576 305.416 115.978C305.443 116.419 305.447 116.841 305.452 117.305C305.455 117.59 305.458 117.891 305.466 118.222C305.487 119.023 305.542 119.924 305.76 120.792C305.904 121.371 306.084 121.872 306.231 122.281L306.233 122.287C306.387 122.718 306.496 123.024 306.567 123.329C306.684 123.834 306.714 124.397 306.327 125.37C305.702 126.937 304.884 127.968 303.586 128.567C302.498 129.069 300.84 128.914 299.079 128.473C298.26 128.269 297.969 127.992 297.735 127.653C297.583 127.432 297.436 127.149 297.244 126.733C297.192 126.619 297.134 126.49 297.071 126.35C296.925 126.026 296.754 125.647 296.567 125.265C296.013 124.135 295.732 123.229 295.704 122.334C295.676 121.451 295.89 120.438 296.561 119.101Z" fill="#FA6B1C" stroke="#FA6B1C" stroke-width="3"/>
<path d="M366.715 178.929C366.715 183.929 369.229 192.628 371.715 192.36C459.215 182.929 460.715 183.929 505.715 174.929C506.21 174.83 510.062 172.702 511.215 170.429C511.976 168.929 512.617 166.509 511.715 163.929C510.813 161.348 505.715 158.929 500.715 156.929C498.358 155.986 496.467 155.758 494.215 156.929C492.745 157.693 493.743 157.788 492.215 158.429C476.715 164.929 479.715 165.429 451.215 172.429C421.117 179.821 366.715 176.069 366.715 178.929Z" fill="#FA6B1C" stroke="#FA6B1C"/>
<path d="M447.215 145.429C466.472 147.007 479.715 148.429 492.215 151.929C495.345 152.805 501.481 154.214 500.215 155.929C498.949 157.643 494.715 155.929 491.715 157.929C482.248 162.892 463.711 169.943 442.215 173.429C406.715 176.429 367.587 181.254 366.715 178.929C365.215 174.929 365.715 144.429 366.715 143.429C367.715 142.429 416.715 142.929 447.215 145.429Z" fill="#FA6B1C" stroke="#FA6B1C"/>
<path d="M377.715 153.929C377.715 149.929 379.487 147.883 382.215 147.429C388.215 146.429 391.529 149.929 391.715 153.929C391.913 158.206 390.215 161.429 385.215 161.429C380.215 161.429 377.715 158.929 377.715 153.929Z" fill="#FA6B1C" stroke="#FA6B1C"/>
<path d="M326.715 519.429C309.215 520.429 292.215 520.429 279.715 553.929C278.595 556.929 263.215 549.429 259.715 572.429C257.432 587.429 270.215 604.429 279.715 607.929C285.215 609.955 284.455 617.402 288.715 620.929C301.82 631.779 308.254 637.626 324.715 641.929C341.743 646.38 351.434 643.767 368.715 640.429C381.936 637.875 389.846 641.062 398.715 630.929C405.1 623.634 407.237 616.429 408.215 605.429C410.215 582.929 406.715 570.929 401.215 542.429C399.272 532.364 402.215 524.236 392.215 516.929C366.215 497.929 331.215 519.171 326.715 519.429Z" fill="#FA6B1C" stroke="#FA6B1C" stroke-width="3"/>
<path d="M332.215 543.428C318.715 537.428 302.715 561.928 296.715 564.928C293.905 566.333 293.945 573.31 288.715 577.929C282.778 583.172 268.215 588.04 275.215 591.928C282.215 595.817 291.215 604.429 291.215 613.929C312.715 629.929 333.585 643.117 349.215 638.428C364.215 633.929 375.434 637.079 387.715 630.929C395.511 627.024 394.215 626.928 401.715 616.928C409.215 606.929 395.215 537.592 392.715 537.428C316.215 532.424 347.81 550.36 332.215 543.428Z" fill="#FA6B1C" stroke="#FA6B1C" stroke-width="3"/>
<path d="M345.215 564.429C342.215 567.429 352.215 578.429 354.715 576.429C356.923 574.662 353.593 572.382 350.715 568.929C348.215 565.929 346.561 563.083 345.215 564.429Z" fill="#FA6B1C" stroke="#FA6B1C" stroke-width="3"/>
<path d="M307.715 584.929C314.381 590.262 327.015 600.429 328.215 600.429C329.415 600.429 334.715 599.929 332.715 596.929C329.24 591.716 315.215 584.929 310.715 582.429C309.382 581.688 301.048 579.595 307.715 584.929Z" fill="#FA6B1C" stroke="#FA6B1C" stroke-width="3"/>
<path d="M595.246 559.642C580.558 583.449 570.686 606.445 548.746 624.642C541.357 630.771 536.344 631.317 526.746 631.142C518.898 630.999 513.461 631.707 506.746 627.642C498.077 622.395 498.357 614.286 495.246 604.642C491.362 592.605 490.047 585.289 490.246 572.642C490.427 561.151 488.951 553.257 495.246 543.642L495.298 543.562C499.977 536.415 502.74 532.196 510.746 529.142C523.105 524.428 524.746 535.142 540.246 532.642C552.197 530.715 559.746 536.996 573.246 534.996C583.785 533.435 595.23 536.644 597.746 546.996C599.244 553.163 598.657 554.115 595.393 559.404L595.246 559.642Z" fill="#FA6B1C" stroke="#FA6B1C" stroke-width="3"/>
<path d="M546.715 620.429C562.715 608.429 595.715 563.429 586.715 554.429C576.322 544.036 575.766 550.497 561.215 548.429C550.775 546.945 544.715 544.429 530.215 545.429C522.548 545.957 519.327 539.376 511.715 540.429C502.158 541.75 504.227 549.443 500.715 558.429C494.728 573.744 495.63 581.88 499.215 597.929C501.543 608.354 502.715 618.677 508.715 623.929C513.519 628.133 521.83 628.429 528.215 628.429C536.715 628.429 540.842 624.833 546.715 620.429Z" fill="#FA6B1C" stroke="#FA6B1C" stroke-width="3"/>
<path d="M520.715 575.929C515.73 573.733 520.914 558.664 526.914 561.137C532.761 563.547 526.71 566.139 525.215 569.429C522.715 574.929 525.699 578.124 520.715 575.929Z" fill="#FA6B1C" stroke="#FA6B1C" stroke-width="3"/>
<path d="M562.894 564.026C567.137 562.612 563.894 577.026 561.894 581.026C560.301 584.213 550.801 589.213 552.394 586.026C557.394 576.026 559.894 565.026 562.894 564.026Z" fill="#FA6B1C" stroke="#FA6B1C" stroke-width="3"/>
</svg>
